# xmcd CD database file
#
# Track frame offsets:
#	150
#	21602
#	40550
#	58512
#	81782
#	100952
#	118872
#	135077
#	154862
#	178052
#	195672
#	212637
#	230307
#	250157
#	265592
#
# Disc length: 3800 seconds
#
# Revision: 13
# Processed by: cddbd v1.5.2PL0 Copyright (c) Steve Scherf et al.
# Submitted via: CDex 2.15
#
DISCID=c30ed60f
DTITLE=Maggie Reilly - There and Back Again - The Best of
DYEAR=1998
DGENRE=Pop
TTITLE0=One Little Word (Album Version)
TTITLE1=Everytime We Touch ('98)
TTITLE2=Walk on by
TTITLE3=To France
TTITLE4=Listen to Your Heart
TTITLE5=Brought Up to Believe
TTITLE6=Moonlight Shadow (Mike Oldfield)
TTITLE7=Little Boys Eyes
TTITLE8=All My Heart Can Hold
TTITLE9=Foreign Affair
TTITLE10=Family Man (Mike Oldfield)
TTITLE11=Don't Wanna Lose
TTITLE12=Follow the Midnight Sun
TTITLE13=Echoes
TTITLE14=Wait
EXTD=YEAR: 1998
EXTT0=
EXTT1=
EXTT2=
EXTT3=
EXTT4=
EXTT5=
EXTT6=
EXTT7=
EXTT8=
EXTT9=
EXTT10=
EXTT11=
EXTT12=
EXTT13=
EXTT14=
PLAYORDER=
